<svg width="24" height="24" viewBox="0 0 38 62" fill="none" xmlns="http://www.w3.org/2000/svg">
  <path d="M3.57053 40.6453L12.1145 49.1893L3.57053 57.7323C-1.14847 53.0143 -1.14847 45.3643 3.57053 40.6453Z" fill="#39E5E5"/>
  <path d="M12.1144 49.1893L20.6584 57.7323L15.6004 62.7903C13.6754 64.7153 10.5524 64.7153 8.62843 62.7903L3.57043 57.7323L12.1144 49.1893Z" fill="#00CCCC"/>
  <path d="M12.1144 32.1015L20.6584 40.6455L12.1144 49.1895L3.57043 40.6455L12.1144 32.1015Z" fill="#00CCCC"/>
  <path d="M20.6584 40.6453C25.3764 45.3643 25.3764 53.0143 20.6584 57.7323L12.1144 49.1893L20.6584 40.6453Z" fill="#00B5B0"/>
  <path d="M20.6271 23.5887L29.1711 32.1327L20.6271 40.6757L12.0831 32.1327L20.6271 23.5887Z" fill="#FF7708"/>
  <path d="M29.1711 15.0449L37.7141 23.5889L29.1711 32.1329L20.6271 23.5889L29.1711 15.0449Z" fill="#FF583A"/>
  <path d="M37.714 23.5887C42.433 28.3077 42.433 35.9577 37.714 40.6757L29.171 32.1327L37.714 23.5887Z" fill="#FF422E"/>
  <path d="M3.53925 6.50132L12.0833 15.0443L3.53925 23.5883C-1.17975 18.8703 -1.17975 11.2193 3.53925 6.50132Z" fill="#FFA700"/>
  <path d="M12.0832 15.0449L20.6272 23.5889L12.0832 32.1329L3.53925 23.5889L12.0832 15.0449Z" fill="#FF9400"/>
  <path d="M15.5696 1.44374L20.6276 6.50174L12.0836 15.0447L3.53955 6.50174L8.59655 1.44374C10.5226 -0.481261 13.6436 -0.481261 15.5696 1.44374Z" fill="#FF9400"/>
  <path d="M20.6271 6.50132L29.1711 15.0443L20.6271 23.5883L12.0831 15.0443L20.6271 6.50132Z" fill="#FF7708"/>
  <path d="M20.6584 40.6453C25.3764 45.3643 25.3764 53.0143 20.6584 57.7323L29.1714 49.2203L37.7144 40.6763L29.1714 32.1323L20.6274 40.6763" fill="#FF583A"/>
</svg>
