<svg width="362" height="65" viewBox="0 0 362 65" fill="none" xmlns="http://www.w3.org/2000/svg">
<path d="M3.57053 40.6453L12.1145 49.1893L3.57053 57.7323C-1.14847 53.0143 -1.14847 45.3643 3.57053 40.6453Z" fill="#39E5E5"/>
<path d="M12.1144 49.1893L20.6584 57.7323L15.6004 62.7903C13.6754 64.7153 10.5524 64.7153 8.62843 62.7903L3.57043 57.7323L12.1144 49.1893Z" fill="#00CCCC"/>
<path d="M12.1144 32.1015L20.6584 40.6455L12.1144 49.1895L3.57043 40.6455L12.1144 32.1015Z" fill="#00CCCC"/>
<path d="M20.6584 40.6453C25.3764 45.3643 25.3764 53.0143 20.6584 57.7323L12.1144 49.1893L20.6584 40.6453Z" fill="#00B5B0"/>
<path d="M20.6271 23.5887L29.1711 32.1327L20.6271 40.6757L12.0831 32.1327L20.6271 23.5887Z" fill="#FF7708"/>
<path d="M29.1711 15.0449L37.7141 23.5889L29.1711 32.1329L20.6271 23.5889L29.1711 15.0449Z" fill="#FF583A"/>
<path d="M37.714 23.5887C42.433 28.3077 42.433 35.9577 37.714 40.6757L29.171 32.1327L37.714 23.5887Z" fill="#FF422E"/>
<path d="M3.53925 6.50132L12.0833 15.0443L3.53925 23.5883C-1.17975 18.8703 -1.17975 11.2193 3.53925 6.50132Z" fill="#FFA700"/>
<path d="M12.0832 15.0449L20.6272 23.5889L12.0832 32.1329L3.53925 23.5889L12.0832 15.0449Z" fill="#FF9400"/>
<path d="M15.5696 1.44374L20.6276 6.50174L12.0836 15.0447L3.53955 6.50174L8.59655 1.44374C10.5226 -0.481261 13.6436 -0.481261 15.5696 1.44374Z" fill="#FF9400"/>
<path d="M20.6271 6.50132L29.1711 15.0443L20.6271 23.5883L12.0831 15.0443L20.6271 6.50132Z" fill="#FF7708"/>
<path d="M20.6584 40.6453C25.3764 45.3643 25.3764 53.0143 20.6584 57.7323L29.1714 49.2203L37.7144 40.6763L29.1714 32.1323L20.6274 40.6763" fill="#FF583A"/>
<path d="M63.1095 17.8578V28.0278H71.6225C73.3135 28.0278 74.5815 27.8218 75.4275 27.4118C76.9225 26.6918 77.6715 25.2718 77.6715 23.1488C77.6715 20.8538 76.9475 19.3128 75.5005 18.5248C74.6875 18.0808 73.4675 17.8578 71.8415 17.8578H63.1095ZM79.4595 12.2588C80.8525 12.8588 82.0345 13.7398 83.0025 14.9038C83.8035 15.8628 84.4385 16.9248 84.9055 18.0888C85.3735 19.2538 85.6075 20.5798 85.6075 22.0698C85.6075 23.8668 85.1535 25.6348 84.2465 27.3728C83.3385 29.1108 81.8395 30.3388 79.7525 31.0578C81.4985 31.7598 82.7345 32.7578 83.4635 34.0498C84.1905 35.3428 84.5535 37.3158 84.5535 39.9698V42.5118C84.5535 44.2418 84.6235 45.4148 84.7625 46.0308C84.9715 47.0068 85.4585 47.7258 86.2235 48.1878V49.1378H77.4915C77.2525 48.2988 77.0815 47.6228 76.9775 47.1088C76.7725 46.0478 76.6615 44.9608 76.6435 43.8478L76.5925 40.3288C76.5605 37.9148 76.1435 36.3058 75.3415 35.5008C74.5405 34.6968 73.0375 34.2938 70.8355 34.2938H63.1095V49.1378H55.3805V11.2828H73.4865C76.0735 11.3348 78.0645 11.6598 79.4595 12.2588Z" fill="#2B2527"/>
<path d="M97.2541 28.035C96.2201 29.101 95.5701 30.545 95.3051 32.368H107.914C107.781 30.425 107.131 28.951 105.964 27.945C104.798 26.938 103.351 26.435 101.623 26.435C99.7441 26.435 98.2881 26.969 97.2541 28.035ZM108.204 21.712C110.156 22.587 111.77 23.967 113.041 25.853C114.188 27.516 114.932 29.445 115.272 31.64C115.469 32.927 115.549 34.778 115.513 37.196H95.1251C95.2381 40.004 96.2141 41.973 98.0521 43.103C99.1701 43.805 100.515 44.156 102.088 44.156C103.755 44.156 105.109 43.728 106.151 42.872C106.72 42.41 107.223 41.767 107.658 40.946H115.131C114.934 42.606 114.029 44.293 112.417 46.005C109.91 48.727 106.4 50.088 101.886 50.088C98.1601 50.088 94.8731 48.94 92.0251 46.644C89.1781 44.348 87.7541 40.612 87.7541 35.437C87.7541 30.588 89.0391 26.869 91.6101 24.282C94.1811 21.694 97.5181 20.4 101.62 20.4C104.057 20.4 106.251 20.838 108.204 21.712Z" fill="#2B2527"/>
<path d="M133.83 21.1449H141.688L131.58 49.1379H123.862L113.824 21.1449H122.042L127.872 41.7929L133.83 21.1449Z" fill="#2B2527"/>
<path d="M150.497 28.035C149.463 29.101 148.813 30.545 148.548 32.368H161.157C161.024 30.425 160.374 28.951 159.207 27.945C158.041 26.938 156.594 26.435 154.866 26.435C152.987 26.435 151.531 26.969 150.497 28.035ZM161.447 21.712C163.399 22.587 165.013 23.967 166.284 25.853C167.431 27.516 168.175 29.445 168.515 31.64C168.712 32.927 168.792 34.778 168.756 37.196H148.368C148.481 40.004 149.457 41.973 151.295 43.103C152.413 43.805 153.758 44.156 155.331 44.156C156.998 44.156 158.352 43.728 159.394 42.872C159.963 42.41 160.466 41.767 160.901 40.946H168.374C168.177 42.606 167.272 44.293 165.66 46.005C163.153 48.727 159.643 50.088 155.129 50.088C151.403 50.088 148.116 48.94 145.268 46.644C142.421 44.348 140.997 40.612 140.997 35.437C140.997 30.588 142.282 26.869 144.853 24.282C147.424 21.694 150.761 20.4 154.863 20.4C157.3 20.4 159.494 20.838 161.447 21.712Z" fill="#2B2527"/>
<path d="M192.401 22.7499C194.234 24.2649 195.151 26.7779 195.151 30.2879V49.1379H187.652V32.1109C187.652 30.6389 187.456 29.5089 187.065 28.7209C186.351 27.2829 184.992 26.5639 182.986 26.5639C180.522 26.5639 178.831 27.6169 177.913 29.7229C177.437 30.8359 177.199 32.2569 177.199 33.9859V49.1379H169.88V21.1959H176.968V25.2799C177.905 23.8419 178.793 22.8059 179.628 22.1719C181.128 21.0419 183.029 20.4779 185.331 20.4779C188.212 20.4779 190.568 21.2349 192.401 22.7499Z" fill="#2B2527"/>
<path d="M206.619 21.145V38.018C206.619 39.61 206.806 40.809 207.181 41.613C207.846 43.035 209.149 43.745 211.091 43.745C213.578 43.745 215.282 42.735 216.202 40.714C216.679 39.619 216.918 38.172 216.918 36.374V21.145H224.34V49.138H217.225V45.183C217.158 45.269 216.987 45.526 216.714 45.954C216.44 46.382 216.116 46.759 215.741 47.083C214.597 48.111 213.491 48.813 212.425 49.189C211.357 49.566 210.106 49.754 208.673 49.754C204.541 49.754 201.758 48.265 200.324 45.286C199.521 43.642 199.12 41.22 199.12 38.018V21.145H206.619Z" fill="#2B2527"/>
<path d="M236.115 28.035C235.081 29.101 234.431 30.545 234.166 32.368H246.775C246.642 30.425 245.992 28.951 244.825 27.945C243.659 26.938 242.212 26.435 240.484 26.435C238.605 26.435 237.149 26.969 236.115 28.035ZM247.065 21.712C249.017 22.587 250.631 23.967 251.902 25.853C253.049 27.516 253.793 29.445 254.133 31.64C254.33 32.927 254.41 34.778 254.374 37.196H233.986C234.099 40.004 235.075 41.973 236.913 43.103C238.031 43.805 239.376 44.156 240.949 44.156C242.616 44.156 243.97 43.728 245.012 42.872C245.581 42.41 246.084 41.767 246.519 40.946H253.992C253.795 42.606 252.89 44.293 251.278 46.005C248.771 48.727 245.261 50.088 240.747 50.088C237.021 50.088 233.734 48.94 230.886 46.644C228.039 44.348 226.615 40.612 226.615 35.437C226.615 30.588 227.9 26.869 230.471 24.282C233.042 21.694 236.379 20.4 240.481 20.4C242.918 20.4 245.112 20.838 247.065 21.712Z" fill="#2B2527"/>
<path d="M259.867 46.0872H268.966C270.93 46.0872 272.638 46.0002 274.095 45.8242C275.549 45.6492 276.751 45.2902 277.697 44.7462C278.643 44.2032 279.354 43.4312 279.827 42.4322C280.301 41.4322 280.537 40.1092 280.537 38.4612C280.537 36.8832 280.274 35.6122 279.748 34.6482C279.222 33.6842 278.468 32.9382 277.487 32.4122C276.505 31.8862 275.33 31.5272 273.963 31.3342C272.596 31.1422 271.07 31.0452 269.387 31.0452H259.867V46.0872ZM259.867 27.9942H268.914C270.771 27.9942 272.332 27.8372 273.595 27.5212C274.857 27.2052 275.874 26.7412 276.645 26.1272C277.416 25.5142 277.969 24.7592 278.302 23.8652C278.635 22.9712 278.802 21.9452 278.802 20.7882C278.802 19.5972 278.608 18.5882 278.223 17.7642C277.837 16.9412 277.223 16.2742 276.383 15.7652C275.541 15.2572 274.444 14.8892 273.095 14.6612C271.745 14.4332 270.088 14.3192 268.125 14.3192H259.867V27.9942ZM256.291 49.1382V11.2692H269.966C272.175 11.2692 274.068 11.4972 275.646 11.9522C277.223 12.4082 278.513 13.0572 279.512 13.8982C280.511 14.7402 281.238 15.7482 281.694 16.9222C282.149 18.0982 282.378 19.3862 282.378 20.7882C282.378 22.1212 282.202 23.2702 281.852 24.2332C281.501 25.1982 281.045 26.0042 280.485 26.6532C279.924 27.3022 279.283 27.8102 278.565 28.1782C277.846 28.5462 277.1 28.8012 276.33 28.9412V29.0462C278.96 29.4322 280.914 30.4662 282.194 32.1492C283.473 33.8322 284.114 35.9362 284.114 38.4612C284.114 40.4252 283.806 42.0902 283.193 43.4582C282.58 44.8252 281.729 45.9292 280.642 46.7712C279.555 47.6122 278.25 48.2172 276.724 48.5862C275.199 48.9542 273.542 49.1382 271.754 49.1382H256.291Z" fill="#2B2527"/>
<path d="M306.099 34.832C304.766 35.393 303.416 35.761 302.049 35.936C300.681 36.112 299.314 36.252 297.947 36.357C295.527 36.533 293.642 37.076 292.292 37.988C290.942 38.9 290.267 40.285 290.267 42.143C290.267 42.984 290.433 43.712 290.767 44.326C291.1 44.939 291.537 45.448 292.082 45.851C292.625 46.254 293.256 46.553 293.975 46.745C294.694 46.938 295.422 47.034 296.159 47.034C297.42 47.034 298.648 46.876 299.84 46.561C301.032 46.246 302.092 45.764 303.022 45.115C303.951 44.466 304.696 43.642 305.257 42.643C305.818 41.643 306.099 40.46 306.099 39.092V34.832ZM300.787 33.254C301.382 33.184 302.092 33.079 302.916 32.938C303.741 32.799 304.415 32.605 304.942 32.36C305.468 32.115 305.791 31.703 305.914 31.124C306.037 30.545 306.099 30.011 306.099 29.52C306.099 27.907 305.581 26.583 304.547 25.549C303.513 24.515 301.768 23.997 299.314 23.997C298.227 23.997 297.227 24.094 296.316 24.287C295.404 24.479 294.607 24.812 293.923 25.286C293.239 25.759 292.678 26.39 292.24 27.179C291.801 27.968 291.512 28.959 291.371 30.151H288.163C288.269 28.539 288.637 27.162 289.268 26.022C289.899 24.883 290.714 23.954 291.714 23.234C292.713 22.516 293.87 21.99 295.185 21.657C296.5 21.324 297.894 21.157 299.367 21.157C300.734 21.157 302.023 21.307 303.233 21.604C304.442 21.902 305.495 22.375 306.388 23.024C307.283 23.673 307.984 24.541 308.492 25.627C309 26.715 309.254 28.047 309.254 29.625V44.457C309.254 45.685 309.473 46.465 309.912 46.798C310.35 47.131 311.236 47.052 312.568 46.561V49.033C312.323 49.103 311.963 49.208 311.49 49.349C311.017 49.488 310.551 49.559 310.096 49.559C309.605 49.559 309.131 49.506 308.676 49.401C308.15 49.331 307.73 49.165 307.413 48.901C307.098 48.639 306.843 48.323 306.651 47.955C306.458 47.586 306.327 47.184 306.256 46.745C306.186 46.307 306.152 45.843 306.152 45.351C304.819 46.824 303.293 47.947 301.576 48.717C299.857 49.488 297.999 49.874 296 49.874C294.808 49.874 293.66 49.717 292.555 49.401C291.451 49.085 290.478 48.595 289.636 47.929C288.794 47.263 288.128 46.448 287.638 45.483C287.146 44.519 286.901 43.371 286.901 42.038C286.901 37.409 290.075 34.674 296.421 33.832L300.787 33.254Z" fill="#2B2527"/>
<path d="M316.724 40.6176C317.214 42.9676 318.1 44.6236 319.38 45.5876C320.66 46.5526 322.492 47.0346 324.876 47.0346C326.034 47.0346 327.033 46.8946 327.874 46.6136C328.716 46.3336 329.408 45.9556 329.952 45.4826C330.495 45.0096 330.907 44.4746 331.188 43.8786C331.468 43.2826 331.609 42.6516 331.609 41.9846C331.609 40.6526 331.179 39.6626 330.32 39.0136C329.46 38.3646 328.382 37.8566 327.085 37.4886C325.787 37.1196 324.385 36.8046 322.877 36.5416C321.37 36.2786 319.967 35.8836 318.67 35.3576C317.372 34.8316 316.294 34.0786 315.435 33.0966C314.576 32.1156 314.147 30.7296 314.147 28.9416C314.147 26.6616 314.979 24.7946 316.645 23.3396C318.31 21.8856 320.668 21.1566 323.719 21.1566C326.664 21.1566 329.058 21.8146 330.899 23.1296C332.74 24.4446 333.852 26.6446 334.239 29.7296H331.03C330.749 27.6266 329.952 26.1456 328.637 25.2856C327.322 24.4266 325.665 23.9966 323.666 23.9966C321.668 23.9966 320.143 24.4266 319.091 25.2856C318.038 26.1456 317.513 27.2766 317.513 28.6786C317.513 29.9066 317.942 30.8436 318.801 31.4926C319.661 32.1416 320.739 32.6676 322.036 33.0696C323.333 33.4736 324.736 33.8326 326.244 34.1486C327.751 34.4636 329.154 34.9106 330.452 35.4896C331.748 36.0676 332.827 36.8486 333.686 37.8296C334.545 38.8116 334.975 40.1796 334.975 41.9326C334.975 43.2296 334.694 44.3786 334.133 45.3776C333.572 46.3766 332.8 47.2096 331.819 47.8756C330.837 48.5426 329.671 49.0416 328.322 49.3746C326.971 49.7076 325.49 49.8746 323.877 49.8746C322.264 49.8746 320.834 49.6376 319.59 49.1646C318.345 48.6906 317.285 48.0336 316.409 47.1916C315.532 46.3506 314.848 45.3686 314.357 44.2466C313.866 43.1246 313.585 41.9146 313.515 40.6176H316.724Z" fill="#2B2527"/>
<path d="M358.275 33.622C358.275 32.29 358.09 31.037 357.722 29.862C357.354 28.687 356.81 27.671 356.092 26.811C355.373 25.952 354.469 25.268 353.383 24.76C352.296 24.252 351.051 23.997 349.649 23.997C348.246 23.997 347.01 24.26 345.941 24.786C344.871 25.312 343.96 26.014 343.206 26.89C342.452 27.767 341.846 28.783 341.391 29.94C340.935 31.098 340.637 32.326 340.498 33.622H358.275ZM340.498 36.252C340.498 37.725 340.69 39.119 341.076 40.434C341.462 41.748 342.031 42.888 342.785 43.852C343.539 44.817 344.495 45.588 345.652 46.166C346.809 46.745 348.141 47.034 349.649 47.034C351.717 47.034 353.489 46.491 354.962 45.404C356.434 44.317 357.416 42.774 357.907 40.775H361.43C361.045 42.073 360.537 43.274 359.905 44.378C359.274 45.483 358.485 46.448 357.539 47.271C356.591 48.095 355.469 48.735 354.172 49.191C352.875 49.646 351.367 49.874 349.649 49.874C347.474 49.874 345.599 49.506 344.021 48.77C342.443 48.034 341.146 47.026 340.129 45.746C339.112 44.466 338.358 42.958 337.868 41.223C337.376 39.487 337.131 37.62 337.131 35.621C337.131 33.622 337.421 31.747 337.999 29.993C338.578 28.24 339.401 26.706 340.471 25.391C341.541 24.076 342.846 23.042 344.389 22.288C345.932 21.534 347.685 21.157 349.649 21.157C353.401 21.157 356.346 22.446 358.485 25.023C360.624 27.6 361.675 31.343 361.641 36.252H340.498Z" fill="#2B2527"/>
</svg>
